<svg id="Layer_1" data-name="Layer 1" xmlns="http://www.w3.org/2000/svg" viewBox="0 0 1177.77 1294.48">
	<defs>
	<style>
		.float {
			animation: floating 3s infinite linear;
		}
		.zzz {
			animation: fadeInOut 3s 0s infinite linear;
		}
		.zzz.z1 {
			animation-delay: 0;
			<!--animation: fadeInOut 3s alternate-infinite linear;-->
		}.zzz.z2 {
			animation-delay: 1s;
			<!--animation: fadeInOut 4s alternate linear;
			animation-delay: 3;-->
		}.zzz.z3 {
			animation-delay: 2s;
			<!--animation: fadeInOut 5s alternate linear;
			animation-delay: 4;-->
		}

		@keyframes floating {
			0% { transform: translate(20px,  0px); }
			20%  { transform: translate(40px, 30px); }
			40%  { transform: translate(60px, 50px); }
			60%  { transform: translate(40px, 55px); }
			80%  { transform: translate(20px, 30px); }
			100%   { transform: translate(20px, 0px); }
		}

		@keyframes fadeInOut {
			from {
				opacity: 1;
				fill: black;
				<!--transform: translateY(-50px);-->
			}
			to {
				fill: transparent;
				<!--opacity: 0-->
			}
		}
	</style>
	</defs>
	<circle class="float" cx="381.94" cy="549.91" r="105.37"/>
	<path class="float" d="M624.22,1226.84,488.38,976.27a44.32,44.32,0,0,0-39.82-24.52H160.34A7.38,7.38,0,0,1,153,943l34.79-200.86A14.85,14.85,0,0,1,202,729.84l26.37-.78a18.6,18.6,0,0,1,17,10l56.75,109a7.45,7.45,0,0,1-6.65,10.83h-41a44.56,44.56,0,0,0-43.9,52.06C214.08,932.43,233,948,255.35,948H395.16a44.7,44.7,0,0,0,39.43-65.85L336.23,699a134.24,134.24,0,0,0-120.37-70.72l-14.52.23A133.53,133.53,0,0,0,70.75,743L.54,1217l-.33,2.29a45.08,45.08,0,0,0,0,6.15v61.77c0,1.18-.62,6,.28,6.59s4.24,0,5.36,0H73.6c2.63,0,5.19,0,7.82.06h2.9c10.73.11,21.51.28,32.29.28H596.28a23.62,23.62,0,0,0,21.37-13.55h0a86.2,86.2,0,0,0,6.56-53.69ZM481.85,1164.9l-13.71,31.88A37.12,37.12,0,0,1,434,1219.24H157.1a37.13,37.13,0,0,1-36.69-42.67l20.5-136.74a7.4,7.4,0,0,1,7.37-6.36H406.05a7.24,7.24,0,0,1,6.42,3.74l68.93,121A7.77,7.77,0,0,1,481.85,1164.9Z" transform="translate(0 0.4)"/>
	<path class="zzz z1" d="M506.75,464.48,504.9,446A50.55,50.55,0,0,1,516.14,409l91.41-110.75L503.43,308.71l-1.85-18.49a37.49,37.49,0,0,1,33.53-41L707.45,232l1.85,18.48a51.86,51.86,0,0,1-11.5,37.87L607.36,398.12,724.8,386.37l1.85,18.48a37.43,37.43,0,0,1-33.52,41Z" transform="translate(0 0.4)" fill="transparent"/>
	<path class="zzz z2" d="M732.67,348.08l-1.84-18.49a50.47,50.47,0,0,1,11.23-36.94L833.47,181.9,729.35,192.31l-1.84-18.49a37.49,37.49,0,0,1,33.53-41L933.37,115.6l1.85,18.49A51.8,51.8,0,0,1,923.73,172L833.28,281.72,950.73,270l1.85,18.48a37.43,37.43,0,0,1-33.53,41Z" transform="translate(0 0.4)" fill="transparent"/>
	<path class="zzz z3" d="M957.67,232.08l-1.84-18.49a50.47,50.47,0,0,1,11.23-36.94L1058.47,65.9,954.35,76.31l-1.84-18.49a37.49,37.49,0,0,1,33.53-41L1158.37-.4l1.85,18.49A51.8,51.8,0,0,1,1148.73,56l-90.45,109.77L1175.73,154l1.85,18.48a37.43,37.43,0,0,1-33.53,41Z" transform="translate(0 0.4)" fill="transparent"/>
</svg>