<svg xmlns="http://www.w3.org/2000/svg" viewBox="0 0 2612.5 503">
	<g>
		<g>
			<circle cx="328.1" cy="149" r="48.6"/>
			<g>
				<g>
					<path d="M478.7,83.2l-66,6.6l0-0.4l54.6-66.3c2.2-2.7,3.5-6.1,3.5-9.6c0-0.5,0-1-0.1-1.5l-71,7.1c-4.5,0.4-7.9,4.3-7.9,8.7
						c0,0.3,0,0.6,0.1,0.9l59.9-6l0.1,0.4l-55.1,66.8c-2.5,3-3.6,6.9-3.2,10.7l77.5-7.8c4.5-0.4,7.8-4.2,7.8-8.6
						C478.7,83.8,478.7,83.5,478.7,83.2z"/>
					<path d="M385.7,109.8l-0.9-8.5c-0.6-6.1,1.3-12.3,5.2-17l42.2-51.1l-48,4.8l-0.9-8.5c-0.9-9.5,6-18,15.5-18.9l79.5-8l0.9,8.5
						c0.6,6.3-1.3,12.6-5.3,17.5l-41.7,50.6l54.2-5.4l0.9,8.5c0.5,4.6-0.9,9.1-3.8,12.7c-2.9,3.6-7.1,5.8-11.7,6.3L385.7,109.8z"/>
				</g>
			</g>
			<path d="M439.9,461.6L377.3,346c-3.5-7-10.5-11.3-18.4-11.3h-133c-1.4,0-2.2-0.8-2.6-1.2c-0.4-0.5-1-1.4-0.7-2.8l16.1-92.7
				c0.5-3.2,3.3-5.6,6.5-5.7l12.2-0.4c3.3-0.1,6.4,1.7,7.9,4.6l26.2,50.3c0.8,1.5,0.3,2.7-0.1,3.4c-0.4,0.6-1.2,1.6-2.9,1.6h-18.9
				c-5.5,0-10.6,2.1-14.5,6c-4.7,4.7-6.9,11.4-5.7,18c1.6,9.9,10.3,17.1,20.7,17.1h64.5c7.3,0,14-3.7,17.7-10.1
				c3.8-6.3,3.9-13.9,0.5-20.3L307.1,218c-11-20.5-32.3-32.9-55.5-32.6l-6.7,0.1c-30.4,0.4-55.8,22.7-60.3,52.8L152.2,457l-0.2,1.1
				c-0.1,0.9,0,1.9,0,2.8c0,0,0,21.4,0,28.5c0,0.5-0.3,2.8,0.1,3c0.4,0.3,2,0,2.5,0h31.3c1.2,0,2.4,0,3.6,0h1.3
				c4.9,0.1,9.9,0.1,14.9,0.1H427c4.2,0,8.1-2.4,9.9-6.3l0,0C440.6,478.6,441.6,470,439.9,461.6L439.9,461.6z M374.2,433l-6.3,14.7
				c-2.7,6.3-8.9,10.4-15.7,10.4H224.4c-10.5,0-18.5-9.3-16.9-19.7l9.5-63.1c0.3-1.7,1.7-2.9,3.4-2.9h118.9c1.2,0,2.4,0.6,3,1.7
				l31.8,55.9C374.6,430.9,374.6,432,374.2,433z"/>
		</g>
		<g>
			<path d="M54.3,322.8l-12.2,12l12.2,12l51.4,50.9c5.1,5,7.9,11.8,7.9,19V441l-93.7-92.8L6.4,334.8l13.5-13.3l93.7-92.8v24.2
				c0,7.1-2.8,14-7.9,19L54.3,322.8z"/>
			<path d="M118.1,451.8L0,334.8l118.1-117v35c0,8.3-3.4,16.4-9.2,22.2l-60.3,59.7l60.3,59.7c5.9,5.8,9.2,13.9,9.2,22.2V451.8z
				 M12.8,334.8l96.3,95.4v-13.4c0-5.9-2.4-11.6-6.6-15.8l-66.8-66.1l66.8-66.1c4.2-4.1,6.6-9.9,6.6-15.8v-13.4L12.8,334.8z"/>
		</g>
		<g>
			<path d="M506.3,346.9l12.2-12l-12.2-12l-51.4-50.9c-5.1-5-7.9-11.8-7.9-19v-24.2l93.7,92.8l13.5,13.3l-13.5,13.3L447,441v-24.2
				c0-7.1,2.8-14,7.9-19L506.3,346.9z"/>
			<path d="M442.5,451.8v-35c0-8.3,3.4-16.4,9.2-22.2l60.3-59.7l-60.3-59.7c-5.9-5.8-9.2-13.9-9.2-22.2v-35l118.1,117L442.5,451.8z
				 M451.5,239.5v13.4c0,5.9,2.4,11.6,6.6,15.8l66.8,66.1L458.1,401c-4.2,4.1-6.6,9.9-6.6,15.8v13.4l96.3-95.4L451.5,239.5z"/>
		</g>
		<path d="M783.7,349.3c5.7,0,8.5,2.7,8.5,8v38c0,5.3-2.8,8-8.5,8h-53.8c-24.9,0-44.5-7.9-59-23.8c-14.5-15.9-21.7-36.4-21.7-61.5
			V79.3c0-5.3,2.8-8,8.5-8h43c5.7,0,8.5,2.7,8.5,8v236c0,10.7,2.4,19,7.3,25c4.9,6,11.1,9,18.6,9H783.7z"/>
		<path d="M831.4,384.7c-14.9-14.5-22.3-33.5-22.3-57.1c0-20.8,7.2-37.9,21.6-51.2c14.4-13.4,33-20.1,55.8-20.1h23.7V236
			c0-7.2-1.9-13-5.7-17.2c-3.8-4.2-9-6.4-15.7-6.4c-6.6,0-11.7,1.9-15.2,5.7c-3.5,3.8-5.4,8.8-5.7,15.1c-0.3,4.1-3.2,6.1-8.5,6.1
			h-38.9c-5.4,0-8.1-2.8-8.1-8.5c1.9-21.4,9.8-38.6,23.7-51.7c13.9-13.1,31.6-19.6,53.2-19.6c23.1,0,41.7,7.4,55.8,22.2
			c14.1,14.8,21.1,34,21.1,57.6V330c0,23.3-6.7,41.9-20.2,55.7c-13.5,13.9-32,20.8-55.8,20.8C865.9,406.5,846.3,399.2,831.4,384.7z
			 M904.8,347.8c3.6-4.1,5.4-9.7,5.4-17v-25.5h-20.3c-7.6,0-13.5,2.1-17.7,6.1c-4.2,4.1-6.4,9.6-6.4,16.5c0,8.2,2,14.6,6.1,19.1
			c4.1,4.6,9.9,6.8,17.5,6.8C896,353.9,901.1,351.9,904.8,347.8z"/>
		<path d="M1123.7,349.3c4.7,0,8.5,3.8,8.5,8.5v35c0,4.7-3.8,8.5-8.5,8.5h-113.6c0,0-11.8-2.1-15.6-6c-3.8-3.9-5.7-9.4-5.3-16.3
			v-9.9c-0.3-10.1,1.7-18.6,5.8-25.5l72.7-126.3h-65.6c-5.7-0.2-7.9-8.2-7.9-8.2v-35.8c0-5.4,2.8-8,8.5-8h108.8
			c6.6,0,11.7,1.8,15.3,5.4c3.6,3.6,5.4,8.8,5.4,15.4v12.8c0,4.7-0.3,9.1-0.9,13.2c-0.6,4.1-2.2,8.2-4.7,12.3l-71.6,124.9H1123.7z"
			/>
		<path d="M1316.2,173.3v248.1c0,24.8-7,44.3-20.9,58.5c-13.9,14.1-32.9,21.2-56.9,21.2c-22.8,0-41.1-7-54.8-21
			c-13.8-14-21.4-33.1-23-57.3c0-5.7,2.7-8.5,8.1-8.5h40.2c4.7,0,7.5,2.8,8.5,8.5c0.6,8.2,2.7,14.5,6.4,18.9
			c3.6,4.4,8.6,6.6,14.9,6.6c6.9,0,12.3-2.1,16-6.4c3.8-4.2,5.7-10.1,5.7-17.7v-42.4c-7.9,7.2-17.4,10.8-28.8,10.8
			c-13.2,0-25.1-3.4-35.8-10.1c-10.7-6.8-19.1-16.1-25.2-28.1c-6.1-11.9-9.2-25.8-9.2-41.5V173.3c0-4.4,3.6-8,8-8h39
			c4.4,0,8,3.6,8,8v143c0,7.2,2,13.1,5.9,17.5c3.9,4.4,9.4,6.6,16.3,6.6c6.9,0,12.3-2.2,16.1-6.6c3.8-4.4,5.7-10.2,5.7-17.5v-143
			c0-4.4,3.6-8,8-8h39.4C1313.3,165.3,1316.2,168,1316.2,173.3z"/>
		<path d="M1377.4,382.7c-15.5-16.4-23.2-37.9-23.2-64.4V153.6c0-26.8,7.7-48.4,23.2-64.6c15.5-16.2,35.8-24.4,61.1-24.4
			c24,0,43.4,8.4,58.1,25.3c14.7,16.9,22.5,39.8,23.4,68.9c0,5.7-2.7,8.5-8,8.5h-42.6c-2.5,0-4.4-0.7-5.9-2.1s-2.1-3.4-2.1-5.9
			c-0.3-12.9-2.7-22.6-7-29.1c-4.4-6.5-10.1-9.7-17.3-9.7c-7.5,0-13.3,2.5-17.6,7.6c-4.2,5.1-6.3,12.2-6.3,21.3v173.2
			c0,9.2,2.1,16.3,6.3,21.3c4.2,5.1,10.1,7.6,17.6,7.6c7.8,0,14-3.7,18.7-11.1c4.7-7.4,7.2-18.1,7.5-31.9c0.6-5.4,3.3-8,8-8h42.6
			c5.9,0,8.6,3,8,9c-0.9,30.6-8.8,54.6-23.6,71.9c-14.8,17.4-34.7,26-59.7,26C1413.2,407.3,1392.8,399.1,1377.4,382.7z"/>
		<path d="M1563.9,384.9c-14.5-14.8-21.8-34.2-21.8-58.2v-87.5c0-23.7,7.3-42.9,21.8-57.7c14.5-14.8,33.6-22.2,57.2-22.2
			c23.7,0,42.7,7.4,57.2,22.2c14.5,14.8,21.8,34.1,21.8,57.7v87.5c0,24-7.3,43.4-21.8,58.2c-14.5,14.8-33.6,22.2-57.2,22.2
			C1597.5,407.1,1578.4,399.7,1563.9,384.9z M1638.1,346.9c4.1-4.4,6.1-10.2,6.1-17.3v-92.8c0-7.5-2-13.4-6.1-17.8
			c-4.1-4.4-9.5-6.6-16.4-6.6c-6.9,0-12.3,2.2-16.4,6.6c-4.1,4.4-6.1,10.3-6.1,17.8v92.8c0,7.2,2,13,6.1,17.3
			c4.1,4.4,9.5,6.6,16.4,6.6C1628.6,353.5,1634,351.3,1638.1,346.9z"/>
		<path d="M1888.2,79.3v247.8c0,23.9-7.3,43.3-21.8,58.1c-14.5,14.8-33.4,22.2-56.7,22.2c-23.6,0-42.6-7.4-57-22.2
			c-14.3-14.8-21.5-34.1-21.5-58.1v-87.3c0-23.6,6.2-42.8,18.6-57.6c12.4-14.8,29-22.2,49.8-22.2c13.5,0,24.4,3.6,32.6,10.9V79.3
			c0-4.4,3.6-8,8-8h39.5C1885.3,71.3,1888.2,74,1888.2,79.3z M1832.2,236.8c0-7.2-2-13-6.1-17.3c-4.1-4.4-9.5-6.6-16.4-6.6
			c-6.9,0-12.3,2.2-16.4,6.6c-4.1,4.4-6.1,10.2-6.1,17.3v92.8c0,7.2,2,13,6.1,17.3c4.1,4.4,9.5,6.6,16.4,6.6
			c6.9,0,12.3-2.2,16.4-6.6c4.1-4.4,6.1-10.2,6.1-17.3V236.8z"/>
		<path d="M1942.4,384.4c-14.1-14.6-21.2-33.8-21.2-57.6v-88.9c0.6-23.2,8.2-41.9,22.6-56c14.4-14.1,33.6-21.2,57.4-21.2
			c22.3,0,40.5,7.1,54.8,21.4c14.3,14.3,21.4,32.7,21.4,55.3c0,21.6-7.1,39.2-21.4,52.7c-14.3,13.5-32.9,20.2-55.8,20.2h-23.1v19.8
			c0,7.5,1.9,13.4,5.6,17.6c3.8,4.2,8.9,6.4,15.5,6.4c6,0,10.7-1.7,14.4-5.2c3.6-3.4,5.9-8.3,6.8-14.6c0.9-5.3,3.8-8,8.5-8h39.5
			c5.3,0,8,2.8,8,8.5c-1.6,21.3-9.4,38.6-23.5,51.8c-14.1,13.2-32.2,19.8-54.1,19.8C1975,406.3,1956.5,399,1942.4,384.4z
			 M2000.3,261.3c6.9,0,12.3-2,16-5.9c3.8-3.9,5.7-9.5,5.7-16.8c0-8.5-2-14.9-5.9-19.4c-3.9-4.4-9.5-6.6-16.8-6.6
			c-7.2,0-12.7,2.1-16.5,6.4c-3.8,4.2-5.7,10.1-5.7,17.7v24.5H2000.3z"/>
		<path d="M2245.7,349.3c5.7,0,8.5,2.7,8.5,8v38c0,5.3-2.8,8-8.5,8h-53.8c-24.9,0-44.5-7.9-59-23.8c-14.5-15.9-21.7-36.4-21.7-61.5
			V79.3c0-5.3,2.8-8,8.5-8h43c5.7,0,8.5,2.7,8.5,8v236c0,10.7,2.4,19,7.3,25c4.9,6,11.1,9,18.6,9H2245.7z"/>
		<path d="M2292.4,384.7c-14.9-14.5-22.3-33.5-22.3-57.1c0-20.8,7.2-37.9,21.6-51.2c14.4-13.4,33-20.1,55.8-20.1h23.7V236
			c0-7.2-1.9-13-5.7-17.2c-3.8-4.2-9-6.4-15.7-6.4c-6.6,0-11.7,1.9-15.2,5.7c-3.5,3.8-5.4,8.8-5.7,15.1c-0.3,4.1-3.2,6.1-8.5,6.1
			h-38.9c-5.4,0-8.1-2.8-8.1-8.5c1.9-21.4,9.8-38.6,23.7-51.7c13.9-13.1,31.6-19.6,53.2-19.6c23.1,0,41.7,7.4,55.8,22.2
			c14.1,14.8,21.1,34,21.1,57.6V330c0,23.3-6.7,41.9-20.2,55.7c-13.5,13.9-32,20.8-55.8,20.8
			C2326.9,406.5,2307.3,399.2,2292.4,384.7z M2365.8,347.8c3.6-4.1,5.4-9.7,5.4-17v-25.5h-20.3c-7.6,0-13.5,2.1-17.7,6.1
			c-4.2,4.1-6.4,9.6-6.4,16.5c0,8.2,2,14.6,6.1,19.1c4.1,4.6,9.9,6.8,17.5,6.8C2357,353.9,2362.1,351.9,2365.8,347.8z"/>
		<path d="M2593.5,182c12.4,14.6,18.6,33.9,18.6,57.8v87.3c0,23.9-7.2,43.3-21.4,58.1c-14.3,14.8-33.2,22.2-56.8,22.2
			c-23.3,0-42-7.4-56.3-22.2c-14.3-14.8-21.4-34.1-21.4-58.1V79.3c0-4.4,3.6-8,8-8h39c4.4,0,8,3.6,8,8v91.6
			c8.2-7.2,19-10.9,32.6-10.9C2564.5,160,2581.1,167.3,2593.5,182z M2557.2,236.8c0-7.2-2-13-6.1-17.3c-4.1-4.4-9.5-6.6-16.4-6.6
			c-6.9,0-12.3,2.2-16.4,6.6c-4.1,4.4-6.1,10.2-6.1,17.3v92.8c0,7.2,2,13,6.1,17.3c4.1,4.4,9.5,6.6,16.4,6.6
			c6.9,0,12.3-2.2,16.4-6.6c4.1-4.4,6.1-10.2,6.1-17.3V236.8z"/>
	</g>
</svg>
