<svg xmlns="http://www.w3.org/2000/svg" viewBox="0 0 1280 1280">
<style type="text/css">
	.st0{fill:none;}
	.st1{fill:#FFFFFF;}
</style>
<g id="Layer_3">
	<rect x="0" class="st0" width="1280" height="1280"/>
</g>
<g id="Layer_1">
	<g>
		<circle class="st1" cx="747.6" cy="421" r="105.4"/>
		<g>
			<g>
				<path class="st1" d="M1073.8,278.2l-143,14.3l-0.1-0.8L1049.1,148c4.8-5.9,7.5-13.3,7.5-20.9c0-1.1-0.1-2.2-0.2-3.3l-153.8,15.4
					c-9.8,0.9-17,9.2-17,18.8c0,0.6,0.1,1.2,0.1,1.8l129.8-13l0.1,0.8L896.1,292.3c-5.4,6.5-7.9,14.9-7,23.3l167.9-16.8
					c9.7-0.9,17-9.2,17-18.7C1073.9,279.4,1073.8,278.8,1073.8,278.2z"/>
				<path class="st1" d="M872.4,335.9l-1.8-18.5c-1.3-13.2,2.8-26.7,11.2-36.9l91.4-110.8L869,180.2l-1.8-18.5
					c-2.1-20.5,13-38.9,33.5-41l172.3-17.2l1.8,18.5c1.4,13.6-2.8,27.4-11.5,37.9L973,269.6l117.4-11.7l1.9,18.5
					c1,10-1.9,19.7-8.3,27.4c-6.3,7.7-15.3,12.6-25.3,13.5L872.4,335.9z"/>
			</g>
		</g>
		<path class="st1" d="M989.8,1098.3L854,847.7c-7.7-15.1-22.8-24.5-39.8-24.5H526c-3,0-4.9-1.7-5.7-2.6c-0.8-1-2.1-3.1-1.6-6.1
			l34.8-200.9c1.2-7,7.1-12.1,14.2-12.3l26.4-0.8c7.1-0.2,13.8,3.7,17,10l56.7,109c1.7,3.2,0.6,5.9-0.3,7.3
			c-0.8,1.3-2.7,3.6-6.4,3.6h-41.1c-11.9,0-23.1,4.6-31.4,13c-10.2,10.1-14.9,24.7-12.5,39c3.5,21.5,22.4,37.1,44.8,37.1h139.8
			c15.9,0,30.3-8.1,38.4-21.8c8.2-13.6,8.5-30.1,1-44.1l-98.4-183.1c-23.9-44.3-70-71.3-120.4-70.7L567,500
			c-66,0.9-120.9,49.1-130.6,114.4l-70.2,474l-0.3,2.3c-0.3,2,0,4.1,0,6.1c0,0,0,46.3,0,61.8c0,1.2-0.6,6,0.3,6.6
			c0.8,0.6,4.2,0,5.4,0h67.8c2.6,0,5.2,0,7.8,0.1h2.9c10.7,0.1,21.5,0.3,32.3,0.3h479.7c9.1,0,17.5-5.3,21.4-13.5l0,0
			C991.2,1135.2,993.5,1116.4,989.8,1098.3L989.8,1098.3z M847.5,1036.3l-13.7,31.9c-5.9,13.6-19.3,22.5-34.1,22.5H522.7
			c-22.7,0-40.1-20.2-36.7-42.7l20.5-136.7c0.6-3.7,3.6-6.4,7.4-6.4h257.8c2.7,0,5.1,1.4,6.4,3.7l68.9,121
			C848.2,1031.7,848.3,1034.2,847.5,1036.3z"/>
	</g>
	<g>
		<path class="st1" d="M154.1,797.5l-26.4,26.1l26.4,26.1L265.5,960c11,10.9,17.1,25.7,17.1,41.1v52.5L79.5,852.5l-29.2-28.9
			l29.2-28.9l203.1-201.1v52.5c0,15.4-6.2,30.2-17.1,41.1L154.1,797.5z"/>
		<path class="st1" d="M292.4,1077.1l-256-253.5l256-253.5v76c0,17.9-7.3,35.4-20,48L141.6,823.6l130.7,129.5
			c12.7,12.6,20,30.1,20,48V1077.1z M64.2,823.6l208.7,206.7v-29.1c0-12.7-5.2-25.2-14.3-34.2L113.9,823.6l144.8-143.3
			c9.1-9,14.3-21.4,14.3-34.2v-29.1L64.2,823.6z"/>
	</g>
	<g>
		<path class="st1" d="M1133.6,849.7l26.4-26.1l-26.4-26.1l-111.4-110.3c-11-10.9-17.1-25.7-17.1-41.1v-52.5l203.1,201.1l29.2,28.9
			l-29.2,28.9l-203.1,201.1v-52.5c0-15.4,6.2-30.2,17.1-41.1L1133.6,849.7z"/>
		<path class="st1" d="M995.3,1077.1v-76c0-17.9,7.3-35.4,20-48l130.7-129.5l-130.7-129.5c-12.7-12.6-20-30.1-20-48v-76l256,253.5
			L995.3,1077.1z M1014.8,616.9v29.1c0,12.7,5.2,25.2,14.3,34.2l144.8,143.3l-144.8,143.3c-9.1,9-14.3,21.4-14.3,34.2v29.1
			l208.7-206.7L1014.8,616.9z"/>
	</g>
</g>
</svg>
