<?xml version="1.0" encoding="utf-8"?>
<!-- Generator: Adobe Illustrator 24.0.1, SVG Export Plug-In . SVG Version: 6.00 Build 0)  -->
<svg version="1.1" id="Layer_1" xmlns="http://www.w3.org/2000/svg" xmlns:xlink="http://www.w3.org/1999/xlink" x="0px" y="0px"
	 viewBox="0 0 215.5 913" style="enable-background:new 0 0 215.5 913;" xml:space="preserve">
<style type="text/css">
	.st0{opacity:0.4;fill:url(#SVGID_1_);enable-background:new    ;}
	.st1{opacity:0.4;fill:url(#SVGID_2_);enable-background:new    ;}
	.st2{opacity:0.4;fill:url(#SVGID_3_);enable-background:new    ;}
	.st3{opacity:0.4;fill:url(#SVGID_4_);enable-background:new    ;}
	.st4{opacity:0.4;fill:url(#SVGID_5_);enable-background:new    ;}
	.st5{opacity:0.4;fill:url(#SVGID_6_);enable-background:new    ;}
	.st6{opacity:0.4;fill:url(#SVGID_7_);enable-background:new    ;}
	.st7{opacity:0.4;fill:url(#SVGID_8_);enable-background:new    ;}
	.st8{opacity:0.4;fill:url(#SVGID_9_);enable-background:new    ;}
	.st9{opacity:0.4;fill:url(#SVGID_10_);enable-background:new    ;}
	.st10{opacity:0.4;fill:url(#SVGID_11_);enable-background:new    ;}
	.st11{opacity:0.4;fill:url(#SVGID_12_);enable-background:new    ;}
	.st12{opacity:0.4;fill:url(#SVGID_13_);enable-background:new    ;}
	.st13{opacity:0.4;fill:url(#SVGID_14_);enable-background:new    ;}
	.st14{opacity:0.4;fill:url(#SVGID_15_);enable-background:new    ;}
	.st15{opacity:0.4;fill:url(#SVGID_16_);enable-background:new    ;}
	.st16{opacity:0.4;fill:url(#SVGID_17_);enable-background:new    ;}
	.st17{opacity:0.4;fill:url(#SVGID_18_);enable-background:new    ;}
	.st18{opacity:0.4;fill:url(#SVGID_19_);enable-background:new    ;}
	.st19{opacity:0.4;fill:url(#SVGID_20_);enable-background:new    ;}
	.st20{opacity:0.4;fill:url(#SVGID_21_);enable-background:new    ;}
	.st21{opacity:0.4;fill:url(#SVGID_22_);enable-background:new    ;}
	.st22{opacity:0.4;fill:url(#SVGID_23_);enable-background:new    ;}
	.st23{opacity:0.4;fill:url(#SVGID_24_);enable-background:new    ;}
	.st24{opacity:0.4;fill:url(#SVGID_25_);enable-background:new    ;}
	.st25{opacity:0.4;fill:url(#SVGID_26_);enable-background:new    ;}
	.st26{opacity:0.4;fill:url(#SVGID_27_);enable-background:new    ;}
	.st27{opacity:0.4;fill:url(#SVGID_28_);enable-background:new    ;}
	.st28{opacity:0.4;fill:url(#SVGID_29_);enable-background:new    ;}
	.st29{opacity:0.4;fill:url(#SVGID_30_);enable-background:new    ;}
	.st30{opacity:0.4;fill:url(#SVGID_31_);enable-background:new    ;}
	.st31{opacity:0.4;fill:url(#SVGID_32_);enable-background:new    ;}
	.st32{opacity:0.4;fill:url(#SVGID_33_);enable-background:new    ;}
	.st33{opacity:0.4;fill:url(#SVGID_34_);enable-background:new    ;}
	.st34{opacity:0.4;fill:url(#SVGID_35_);enable-background:new    ;}
	.st35{opacity:0.4;fill:url(#SVGID_36_);enable-background:new    ;}
	.st36{opacity:0.4;fill:url(#SVGID_37_);enable-background:new    ;}
	.st37{opacity:0.4;fill:url(#SVGID_38_);enable-background:new    ;}
	.st38{opacity:0.4;fill:url(#SVGID_39_);enable-background:new    ;}
	.st39{opacity:0.4;fill:url(#SVGID_40_);enable-background:new    ;}
	.st40{opacity:0.4;fill:url(#SVGID_41_);enable-background:new    ;}
	.st41{opacity:0.4;fill:url(#SVGID_42_);enable-background:new    ;}
	.st42{opacity:0.4;fill:url(#SVGID_43_);enable-background:new    ;}
	.st43{opacity:0.4;fill:url(#SVGID_44_);enable-background:new    ;}
	.st44{opacity:0.4;fill:url(#SVGID_45_);enable-background:new    ;}
	.st45{opacity:0.4;fill:url(#SVGID_46_);enable-background:new    ;}
</style>
<g>
	
		<linearGradient id="SVGID_1_" gradientUnits="userSpaceOnUse" x1="629.5278" y1="119.8549" x2="630.5276" y2="119.8549" gradientTransform="matrix(-107.0834 0 0 913 67573.2969 -108520.1875)">
		<stop  offset="0" style="stop-color:#AAAAAA"/>
		<stop  offset="1" style="stop-color:#FFFFFF"/>
	</linearGradient>
	<path class="st0" d="M189.4,913c-0.1-3.8-0.2-7.6-0.3-11.4c-1.8,3.8-3.7,7.6-5.7,11.4H189.4z"/>
	
		<linearGradient id="SVGID_2_" gradientUnits="userSpaceOnUse" x1="629.5303" y1="119.5196" x2="630.5377" y2="119.5196" gradientTransform="matrix(-107.0834 0 0 913 67573.2969 -108520.1875)">
		<stop  offset="0" style="stop-color:#AAAAAA"/>
		<stop  offset="1" style="stop-color:#FFFFFF"/>
	</linearGradient>
	<path class="st1" d="M196.3,524.5c-26.3,45.4-25.8,102.6-16.1,153.4C180.1,627.2,187.7,575.6,196.3,524.5z"/>
	
		<linearGradient id="SVGID_3_" gradientUnits="userSpaceOnUse" x1="629.5586" y1="119.2962" x2="630.5624" y2="119.2962" gradientTransform="matrix(-106.29 0 0 913 67076.6172 -108520.1875)">
		<stop  offset="0" style="stop-color:#AAAAAA"/>
		<stop  offset="1" style="stop-color:#FFFFFF"/>
	</linearGradient>
	<path class="st2" d="M186.1,358.6c13.6,54.1,17.5,111.2,10.2,165.9c48.1-118.2-16.1-165.8-14.5-254.4
		C179.1,299.6,180.5,329.1,186.1,358.6z"/>
	
		<linearGradient id="SVGID_4_" gradientUnits="userSpaceOnUse" x1="629.5378" y1="119.3611" x2="630.5898" y2="119.3611" gradientTransform="matrix(-107.0834 0 0 913 67573.2969 -108520.1875)">
		<stop  offset="0" style="stop-color:#AAAAAA"/>
		<stop  offset="1" style="stop-color:#FFFFFF"/>
	</linearGradient>
	<path class="st3" d="M187.5,365.2c-0.5-2.2-1-4.4-1.5-6.6c14.5,64.5,13,130.9-4.3,195.7C215,497.9,196.5,412.5,187.5,365.2z"/>
	
		<linearGradient id="SVGID_5_" gradientUnits="userSpaceOnUse" x1="629.5682" y1="119.3611" x2="630.6205" y2="119.3611" gradientTransform="matrix(-106.29 0 0 913 67076.6172 -108520.1875)">
		<stop  offset="0" style="stop-color:#AAAAAA"/>
		<stop  offset="1" style="stop-color:#FFFFFF"/>
	</linearGradient>
	<path class="st4" d="M187.5,365.2c-0.5-2.2-1-4.4-1.5-6.6c14.5,64.5,13,130.9-4.3,195.7C215,497.9,196.5,412.5,187.5,365.2z"/>
	
		<linearGradient id="SVGID_6_" gradientUnits="userSpaceOnUse" x1="629.4393" y1="119.009" x2="630.4567" y2="119.009" gradientTransform="matrix(-109.5768 0 0 913 69134.1484 -108520.1875)">
		<stop  offset="0" style="stop-color:#AAAAAA"/>
		<stop  offset="1" style="stop-color:#FFFFFF"/>
	</linearGradient>
	<path class="st5" d="M199.8,182.6c-10,28.7-18.9,57.2-18,87.5c18.8-125.7,62-152.6,15-270.1H191
		C219.5,60.9,222.4,121.7,199.8,182.6z"/>
	
		<linearGradient id="SVGID_7_" gradientUnits="userSpaceOnUse" x1="629.438" y1="119.7261" x2="630.4495" y2="119.7261" gradientTransform="matrix(-109.5768 0 0 913 69134.1484 -108520.1875)">
		<stop  offset="0" style="stop-color:#AAAAAA"/>
		<stop  offset="1" style="stop-color:#FFFFFF"/>
	</linearGradient>
	<path class="st6" d="M181.5,730.4c32.7,104.6,14,95.5,7.5,171.2c50.1-113.2,1.8-162.6-8.8-223.7
		C180.1,695.4,180.5,712.9,181.5,730.4z"/>
	
		<linearGradient id="SVGID_8_" gradientUnits="userSpaceOnUse" x1="629.5282" y1="119.8463" x2="630.5301" y2="119.8463" gradientTransform="matrix(-107.0834 0 0 913 67573.2969 -108520.1875)">
		<stop  offset="0" style="stop-color:#AAAAAA"/>
		<stop  offset="1" style="stop-color:#FFFFFF"/>
	</linearGradient>
	<path class="st7" d="M177.5,913h5.9c5.1-7,6.6-16.6,5.3-27.1C185.5,894.9,181.8,904,177.5,913z"/>
	
		<linearGradient id="SVGID_9_" gradientUnits="userSpaceOnUse" x1="629.4365" y1="119.8463" x2="630.4387" y2="119.8463" gradientTransform="matrix(-109.5768 0 0 913 69134.1484 -108520.1875)">
		<stop  offset="0" style="stop-color:#AAAAAA"/>
		<stop  offset="1" style="stop-color:#FFFFFF"/>
	</linearGradient>
	<path class="st8" d="M177.5,913h5.9c5.1-7,6.6-16.6,5.3-27.1C185.5,894.9,181.8,904,177.5,913z"/>
	
		<linearGradient id="SVGID_10_" gradientUnits="userSpaceOnUse" x1="629.5307" y1="118.999" x2="630.5452" y2="118.999" gradientTransform="matrix(-107.0834 0 0 913 67573.2969 -108520.1875)">
		<stop  offset="0" style="stop-color:#AAAAAA"/>
		<stop  offset="1" style="stop-color:#FFFFFF"/>
	</linearGradient>
	<path class="st9" d="M194,182.6c-6.9,23.1-11,46.2-12,69.2c24.8-115.8,55.8-144.7,9-251.8h-4.8C209.8,60.9,212.3,121.7,194,182.6z"
		/>
	
		<linearGradient id="SVGID_11_" gradientUnits="userSpaceOnUse" x1="629.4388" y1="118.999" x2="630.4536" y2="118.999" gradientTransform="matrix(-109.5768 0 0 913 69134.1484 -108520.1875)">
		<stop  offset="0" style="stop-color:#AAAAAA"/>
		<stop  offset="1" style="stop-color:#FFFFFF"/>
	</linearGradient>
	<path class="st10" d="M194,182.6c-6.9,23.1-11,46.2-12,69.2c24.8-115.8,55.8-144.7,9-251.8h-4.8C209.8,60.9,212.3,121.7,194,182.6z
		"/>
	
		<linearGradient id="SVGID_12_" gradientUnits="userSpaceOnUse" x1="629.5267" y1="119.5683" x2="630.5205" y2="119.5683" gradientTransform="matrix(-107.0834 0 0 913 67573.2969 -108520.1875)">
		<stop  offset="0" style="stop-color:#AAAAAA"/>
		<stop  offset="1" style="stop-color:#FFFFFF"/>
	</linearGradient>
	<path class="st11" d="M181.8,554.3c-30.6,60.3-29.6,122.7,0.2,182.8C182,676.9,165.8,614.8,181.8,554.3z"/>
	
		<linearGradient id="SVGID_13_" gradientUnits="userSpaceOnUse" x1="629.4351" y1="119.5683" x2="630.4293" y2="119.5683" gradientTransform="matrix(-109.5768 0 0 913 69134.1484 -108520.1875)">
		<stop  offset="0" style="stop-color:#AAAAAA"/>
		<stop  offset="1" style="stop-color:#FFFFFF"/>
	</linearGradient>
	<path class="st12" d="M181.8,554.3c-30.6,60.3-29.6,122.7,0.2,182.8C182,676.9,165.8,614.8,181.8,554.3z"/>
	
		<linearGradient id="SVGID_14_" gradientUnits="userSpaceOnUse" x1="629.5579" y1="119.1954" x2="630.558" y2="119.1954" gradientTransform="matrix(-106.29 0 0 913 67076.6172 -108520.1875)">
		<stop  offset="0" style="stop-color:#AAAAAA"/>
		<stop  offset="1" style="stop-color:#FFFFFF"/>
	</linearGradient>
	<path class="st13" d="M182,251.8c-5,35.6-3.7,71.2,4,106.8C178.6,323.3,180.7,287.8,182,251.8z"/>
	
		<linearGradient id="SVGID_15_" gradientUnits="userSpaceOnUse" x1="629.4362" y1="119.1954" x2="630.4362" y2="119.1954" gradientTransform="matrix(-109.5768 0 0 913 69134.1484 -108520.1875)">
		<stop  offset="0" style="stop-color:#AAAAAA"/>
		<stop  offset="1" style="stop-color:#FFFFFF"/>
	</linearGradient>
	<path class="st14" d="M182,251.8c-5,35.6-3.7,71.2,4,106.8C178.6,323.3,180.7,287.8,182,251.8z"/>
	
		<linearGradient id="SVGID_16_" gradientUnits="userSpaceOnUse" x1="629.5579" y1="119.7499" x2="630.558" y2="119.7499" gradientTransform="matrix(-106.29 0 0 913 67076.6172 -108520.1875)">
		<stop  offset="0" style="stop-color:#AAAAAA"/>
		<stop  offset="1" style="stop-color:#FFFFFF"/>
	</linearGradient>
	<path class="st15" d="M181.9,737.1c3,49.6,5.2,99.2,6.7,148.8C205.6,836.3,203.4,786.7,181.9,737.1z"/>
	
		<linearGradient id="SVGID_17_" gradientUnits="userSpaceOnUse" x1="629.4362" y1="119.7499" x2="630.4362" y2="119.7499" gradientTransform="matrix(-109.5768 0 0 913 69134.1484 -108520.1875)">
		<stop  offset="0" style="stop-color:#AAAAAA"/>
		<stop  offset="1" style="stop-color:#FFFFFF"/>
	</linearGradient>
	<path class="st16" d="M181.9,737.1c3,49.6,5.2,99.2,6.7,148.8C205.6,836.3,203.4,786.7,181.9,737.1z"/>
	
		<linearGradient id="SVGID_18_" gradientUnits="userSpaceOnUse" x1="629.5226" y1="119.3611" x2="630.5252" y2="119.3611" gradientTransform="matrix(-107.0834 0 0 913 67573.2969 -108520.1875)">
		<stop  offset="0" style="stop-color:#AAAAAA"/>
		<stop  offset="1" style="stop-color:#FFFFFF"/>
	</linearGradient>
	<path class="st17" d="M182.4,737.1c-60.7-126.5,20.3-174.9,14.1-285.6c1.5-41.9-8.5-80.5-15-122.9C169.5,172.8,239.7,135.2,186.7,0
		H110v913h67.9C201.8,859.7,180.3,794.7,182.4,737.1z"/>
	
		<linearGradient id="SVGID_19_" gradientUnits="userSpaceOnUse" x1="629.5526" y1="119.3611" x2="630.5556" y2="119.3611" gradientTransform="matrix(-106.29 0 0 913 67076.6172 -108520.1875)">
		<stop  offset="0" style="stop-color:#AAAAAA"/>
		<stop  offset="1" style="stop-color:#FFFFFF"/>
	</linearGradient>
	<path class="st18" d="M182.4,737.1c-60.7-126.5,20.3-174.9,14.1-285.6c1.5-41.9-8.5-80.5-15-122.9C169.5,172.8,239.7,135.2,186.7,0
		H110v913h67.9C201.8,859.7,180.3,794.7,182.4,737.1z"/>
	
		<linearGradient id="SVGID_20_" gradientUnits="userSpaceOnUse" x1="629.431" y1="119.3611" x2="630.434" y2="119.3611" gradientTransform="matrix(-109.5768 0 0 913 69134.1484 -108520.1875)">
		<stop  offset="0" style="stop-color:#AAAAAA"/>
		<stop  offset="1" style="stop-color:#FFFFFF"/>
	</linearGradient>
	<path class="st19" d="M182.4,737.1c-60.7-126.5,20.3-174.9,14.1-285.6c1.5-41.9-8.5-80.5-15-122.9C169.5,172.8,239.7,135.2,186.7,0
		H110v913h67.9C201.8,859.7,180.3,794.7,182.4,737.1z"/>
	
		<linearGradient id="SVGID_21_" gradientUnits="userSpaceOnUse" x1="635.1246" y1="119.7575" x2="636.1244" y2="119.7575" gradientTransform="matrix(107.0834 0 0 -913 -67955.2969 109344.1875)">
		<stop  offset="0" style="stop-color:#AAAAAA"/>
		<stop  offset="1" style="stop-color:#FFFFFF"/>
	</linearGradient>
	<path class="st20" d="M28,0c0.1,3.7,0.2,7.5,0.3,11.2C30,7.5,31.9,3.7,33.9,0H28z"/>
	
		<linearGradient id="SVGID_22_" gradientUnits="userSpaceOnUse" x1="635.1246" y1="119.4221" x2="636.1244" y2="119.4221" gradientTransform="matrix(107.0834 0 0 -913 -67955.2969 109344.1875)">
		<stop  offset="0" style="stop-color:#AAAAAA"/>
		<stop  offset="1" style="stop-color:#FFFFFF"/>
	</linearGradient>
	<path class="st21" d="M35.6,358.7c9.5-41.2,10-82.4,1.6-123.6c0.2,50.7-7.5,102.3-16.1,153.4C24.8,379.4,30.2,368.9,35.6,358.7z"/>
	
		<linearGradient id="SVGID_23_" gradientUnits="userSpaceOnUse" x1="635.1971" y1="119.199" x2="636.201" y2="119.199" gradientTransform="matrix(106.29 0 0 -913 -67458.6172 109344.1875)">
		<stop  offset="0" style="stop-color:#AAAAAA"/>
		<stop  offset="1" style="stop-color:#FFFFFF"/>
	</linearGradient>
	<path class="st22" d="M31.3,554.4c-13.6-54.1-17.5-111.2-10.2-165.9c-48.1,118.4,16,165.7,14.5,254.1
		C38.2,613.2,36.8,583.8,31.3,554.4z"/>
	
		<linearGradient id="SVGID_24_" gradientUnits="userSpaceOnUse" x1="635.1346" y1="119.2636" x2="636.1866" y2="119.2636" gradientTransform="matrix(107.0834 0 0 -913 -67955.2969 109344.1875)">
		<stop  offset="0" style="stop-color:#AAAAAA"/>
		<stop  offset="1" style="stop-color:#FFFFFF"/>
	</linearGradient>
	<path class="st23" d="M29.8,547.8c0.5,2.2,1,4.4,1.5,6.6c-14.4-64.5-13-130.9,4.3-195.7C2.3,415.1,20.8,500.5,29.8,547.8z"/>
	
		<linearGradient id="SVGID_25_" gradientUnits="userSpaceOnUse" x1="635.2066" y1="119.2636" x2="636.259" y2="119.2636" gradientTransform="matrix(106.29 0 0 -913 -67458.6172 109344.1875)">
		<stop  offset="0" style="stop-color:#AAAAAA"/>
		<stop  offset="1" style="stop-color:#FFFFFF"/>
	</linearGradient>
	<path class="st24" d="M29.8,547.8c0.5,2.2,1,4.4,1.5,6.6c-14.4-64.5-13-130.9,4.3-195.7C2.3,415.1,20.8,500.5,29.8,547.8z"/>
	
		<linearGradient id="SVGID_26_" gradientUnits="userSpaceOnUse" x1="634.9074" y1="119.6287" x2="635.9189" y2="119.6287" gradientTransform="matrix(109.5768 0 0 -913 -69516.1484 109344.1875)">
		<stop  offset="0" style="stop-color:#AAAAAA"/>
		<stop  offset="1" style="stop-color:#FFFFFF"/>
	</linearGradient>
	<path class="st25" d="M35.8,182.6C2.9,77.3,22,86.9,28.3,11.2c-50.2,113.2-1.8,162.8,8.8,223.9C37.3,217.6,36.8,200.1,35.8,182.6z"
		/>
	
		<linearGradient id="SVGID_27_" gradientUnits="userSpaceOnUse" x1="634.9086" y1="118.9117" x2="635.9259" y2="118.9117" gradientTransform="matrix(109.5768 0 0 -913 -69516.1484 109344.1875)">
		<stop  offset="0" style="stop-color:#AAAAAA"/>
		<stop  offset="1" style="stop-color:#FFFFFF"/>
	</linearGradient>
	<path class="st26" d="M17.6,730.4c10.1-28.8,18.9-57.4,18-87.8C16.9,768.5-26.5,795.3,20.6,913h5.7C-2.2,852.1-5,791.3,17.6,730.4z
		"/>
	
		<linearGradient id="SVGID_28_" gradientUnits="userSpaceOnUse" x1="635.1275" y1="118.9018" x2="636.142" y2="118.9018" gradientTransform="matrix(107.0834 0 0 -913 -67955.2969 109344.1875)">
		<stop  offset="0" style="stop-color:#AAAAAA"/>
		<stop  offset="1" style="stop-color:#FFFFFF"/>
	</linearGradient>
	<path class="st27" d="M23.3,730.4c7-23.2,11-46.5,12.1-69.7c-24.7,116.1-56,144.9-9.1,252.3h4.8C7.5,852.1,4.9,791.3,23.3,730.4z"
		/>
	
		<linearGradient id="SVGID_29_" gradientUnits="userSpaceOnUse" x1="634.9081" y1="118.9018" x2="635.923" y2="118.9018" gradientTransform="matrix(109.5768 0 0 -913 -69516.1484 109344.1875)">
		<stop  offset="0" style="stop-color:#AAAAAA"/>
		<stop  offset="1" style="stop-color:#FFFFFF"/>
	</linearGradient>
	<path class="st28" d="M23.3,730.4c7-23.2,11-46.5,12.1-69.7c-24.7,116.1-56,144.9-9.1,252.3h4.8C7.5,852.1,4.9,791.3,23.3,730.4z"
		/>
	
		<linearGradient id="SVGID_30_" gradientUnits="userSpaceOnUse" x1="635.1248" y1="119.7488" x2="636.1259" y2="119.7488" gradientTransform="matrix(107.0834 0 0 -913 -67955.2969 109344.1875)">
		<stop  offset="0" style="stop-color:#AAAAAA"/>
		<stop  offset="1" style="stop-color:#FFFFFF"/>
	</linearGradient>
	<path class="st29" d="M39.9,0h-6c-5.1,7-6.4,16.6-5.2,27.1C31.8,18.1,35.5,9,39.9,0z"/>
	
		<linearGradient id="SVGID_31_" gradientUnits="userSpaceOnUse" x1="634.9057" y1="119.7488" x2="635.907" y2="119.7488" gradientTransform="matrix(109.5768 0 0 -913 -69516.1484 109344.1875)">
		<stop  offset="0" style="stop-color:#AAAAAA"/>
		<stop  offset="1" style="stop-color:#FFFFFF"/>
	</linearGradient>
	<path class="st30" d="M39.9,0h-6c-5.1,7-6.4,16.6-5.2,27.1C31.8,18.1,35.5,9,39.9,0z"/>
	
		<linearGradient id="SVGID_32_" gradientUnits="userSpaceOnUse" x1="635.1235" y1="119.4709" x2="636.1173" y2="119.4709" gradientTransform="matrix(107.0834 0 0 -913 -67955.2969 109344.1875)">
		<stop  offset="0" style="stop-color:#AAAAAA"/>
		<stop  offset="1" style="stop-color:#FFFFFF"/>
	</linearGradient>
	<path class="st31" d="M35.6,358.7c30.6-60.3,29.6-122.7-0.2-182.8C35.3,236.1,51.5,298.2,35.6,358.7z"/>
	
		<linearGradient id="SVGID_33_" gradientUnits="userSpaceOnUse" x1="634.9045" y1="119.4709" x2="635.8986" y2="119.4709" gradientTransform="matrix(109.5768 0 0 -913 -69516.1484 109344.1875)">
		<stop  offset="0" style="stop-color:#AAAAAA"/>
		<stop  offset="1" style="stop-color:#FFFFFF"/>
	</linearGradient>
	<path class="st32" d="M35.6,358.7c30.6-60.3,29.6-122.7-0.2-182.8C35.3,236.1,51.5,298.2,35.6,358.7z"/>
	
		<linearGradient id="SVGID_34_" gradientUnits="userSpaceOnUse" x1="635.1964" y1="119.6525" x2="636.1965" y2="119.6525" gradientTransform="matrix(106.29 0 0 -913 -67458.6172 109344.1875)">
		<stop  offset="0" style="stop-color:#AAAAAA"/>
		<stop  offset="1" style="stop-color:#FFFFFF"/>
	</linearGradient>
	<path class="st33" d="M35.4,175.9c-3-49.6-5.2-99.2-6.7-148.8C11.8,76.7,14,126.3,35.4,175.9z"/>
	
		<linearGradient id="SVGID_35_" gradientUnits="userSpaceOnUse" x1="634.9055" y1="119.6525" x2="635.9056" y2="119.6525" gradientTransform="matrix(109.5768 0 0 -913 -69516.1484 109344.1875)">
		<stop  offset="0" style="stop-color:#AAAAAA"/>
		<stop  offset="1" style="stop-color:#FFFFFF"/>
	</linearGradient>
	<path class="st34" d="M35.4,175.9c-3-49.6-5.2-99.2-6.7-148.8C11.8,76.7,14,126.3,35.4,175.9z"/>
	
		<linearGradient id="SVGID_36_" gradientUnits="userSpaceOnUse" x1="635.1964" y1="119.0982" x2="636.1965" y2="119.0982" gradientTransform="matrix(106.29 0 0 -913 -67458.6172 109344.1875)">
		<stop  offset="0" style="stop-color:#AAAAAA"/>
		<stop  offset="1" style="stop-color:#FFFFFF"/>
	</linearGradient>
	<path class="st35" d="M35.4,660.7c4.9-35.4,3.6-70.9-4.1-106.3C38.7,589.5,36.6,624.9,35.4,660.7z"/>
	
		<linearGradient id="SVGID_37_" gradientUnits="userSpaceOnUse" x1="634.9055" y1="119.0982" x2="635.9056" y2="119.0982" gradientTransform="matrix(109.5768 0 0 -913 -69516.1484 109344.1875)">
		<stop  offset="0" style="stop-color:#AAAAAA"/>
		<stop  offset="1" style="stop-color:#FFFFFF"/>
	</linearGradient>
	<path class="st36" d="M35.4,660.7c4.9-35.4,3.6-70.9-4.1-106.3C38.7,589.5,36.6,624.9,35.4,660.7z"/>
	
		<linearGradient id="SVGID_38_" gradientUnits="userSpaceOnUse" x1="635.1254" y1="119.2636" x2="636.1284" y2="119.2636" gradientTransform="matrix(107.0834 0 0 -913 -67955.2969 109344.1875)">
		<stop  offset="0" style="stop-color:#AAAAAA"/>
		<stop  offset="1" style="stop-color:#FFFFFF"/>
	</linearGradient>
	<path class="st37" d="M40.1,0c-20.2,35.1-6.5,79.1-7.6,118.4c-2.2,77.4,37,113.9,23.9,176.5C-10,500.7,36.8,492.9,38.3,630.8
		c-9.3,135.5-51.9,162.9-7,282.2H108V0H40.1z"/>
	
		<linearGradient id="SVGID_39_" gradientUnits="userSpaceOnUse" x1="635.1971" y1="119.2636" x2="636.2006" y2="119.2636" gradientTransform="matrix(106.29 0 0 -913 -67458.6172 109344.1875)">
		<stop  offset="0" style="stop-color:#AAAAAA"/>
		<stop  offset="1" style="stop-color:#FFFFFF"/>
	</linearGradient>
	<path class="st38" d="M40.1,0c-20.2,35.1-6.5,79.1-7.6,118.4c-2.2,77.4,37,113.9,23.9,176.5C-10,500.7,36.8,492.9,38.3,630.8
		c-9.3,135.5-51.9,162.9-7,282.2H108V0H40.1z"/>
	
		<linearGradient id="SVGID_40_" gradientUnits="userSpaceOnUse" x1="634.9062" y1="119.2636" x2="635.9096" y2="119.2636" gradientTransform="matrix(109.5768 0 0 -913 -69516.1484 109344.1875)">
		<stop  offset="0" style="stop-color:#AAAAAA"/>
		<stop  offset="1" style="stop-color:#FFFFFF"/>
	</linearGradient>
	<path class="st39" d="M40.1,0c-20.2,35.1-6.5,79.1-7.6,118.4c-2.2,77.4,37,113.9,23.9,176.5C-10,500.7,36.8,492.9,38.3,630.8
		c-9.3,135.5-51.9,162.9-7,282.2H108V0H40.1z"/>
	
		<linearGradient id="SVGID_41_" gradientUnits="userSpaceOnUse" x1="629.4805" y1="119.3611" x2="630.5701" y2="119.3611" gradientTransform="matrix(-107.0834 0 0 913 67573.2969 -108520.1875)">
		<stop  offset="0" style="stop-color:#AAAAAA"/>
		<stop  offset="1" style="stop-color:#FFFFFF"/>
	</linearGradient>
	<rect x="108" class="st40" width="2" height="913"/>
	
		<linearGradient id="SVGID_42_" gradientUnits="userSpaceOnUse" x1="629.5106" y1="119.3611" x2="630.6006" y2="119.3611" gradientTransform="matrix(-106.29 0 0 913 67076.6172 -108520.1875)">
		<stop  offset="0" style="stop-color:#AAAAAA"/>
		<stop  offset="1" style="stop-color:#FFFFFF"/>
	</linearGradient>
	<rect x="108" class="st41" width="2" height="913"/>
	
		<linearGradient id="SVGID_43_" gradientUnits="userSpaceOnUse" x1="629.3889" y1="119.3611" x2="630.4789" y2="119.3611" gradientTransform="matrix(-109.5768 0 0 913 69134.1484 -108520.1875)">
		<stop  offset="0" style="stop-color:#AAAAAA"/>
		<stop  offset="1" style="stop-color:#FFFFFF"/>
	</linearGradient>
	<rect x="108" class="st42" width="2" height="913"/>
	
		<linearGradient id="SVGID_44_" gradientUnits="userSpaceOnUse" x1="635.0836" y1="119.2636" x2="636.1732" y2="119.2636" gradientTransform="matrix(107.0834 0 0 -913 -67955.2969 109344.1875)">
		<stop  offset="0" style="stop-color:#AAAAAA"/>
		<stop  offset="1" style="stop-color:#FFFFFF"/>
	</linearGradient>
	<rect x="108" class="st43" width="2" height="913"/>
	
		<linearGradient id="SVGID_45_" gradientUnits="userSpaceOnUse" x1="635.1553" y1="119.2636" x2="636.2453" y2="119.2636" gradientTransform="matrix(106.29 0 0 -913 -67458.6172 109344.1875)">
		<stop  offset="0" style="stop-color:#AAAAAA"/>
		<stop  offset="1" style="stop-color:#FFFFFF"/>
	</linearGradient>
	<rect x="108" class="st44" width="2" height="913"/>
	
		<linearGradient id="SVGID_46_" gradientUnits="userSpaceOnUse" x1="634.8644" y1="119.2636" x2="635.9543" y2="119.2636" gradientTransform="matrix(109.5768 0 0 -913 -69516.1484 109344.1875)">
		<stop  offset="0" style="stop-color:#AAAAAA"/>
		<stop  offset="1" style="stop-color:#FFFFFF"/>
	</linearGradient>
	<rect x="108" class="st45" width="2" height="913"/>
</g>
</svg>
