<svg xmlns="http://www.w3.org/2000/svg" viewBox="0 0 1214.98 1062.55" class="fill-blue-500 text-red-300">
	<g>
		<circle cx="711.49" cy="317.05" r="105.5"/>
		<path d="M1037.78,174.71l-143,14.3-.06-.78L1013.1,44.52a33.27,33.27,0,0,0,7.48-20.89c0-1.07-.06-2.18-.17-3.3L866.59,35.75a18.88,18.88,0,0,0-17,18.76c0,.62.06,1.23.11,1.85l129.76-13,.11.78L860.05,188.85a31.76,31.76,0,0,0-7,23.29l167.91-16.82a18.86,18.86,0,0,0,17-18.65C1037.9,176,1037.84,175.38,1037.78,174.71Z"/><path d="M836.36,232.48,834.51,214a50.55,50.55,0,0,1,11.24-37L937.16,66.29,833,76.71l-1.85-18.49a37.49,37.49,0,0,1,33.53-41L1037.06,0l1.85,18.48a51.86,51.86,0,0,1-11.5,37.87L937,166.12l117.45-11.75,1.85,18.48a37.45,37.45,0,0,1-33.53,41Z"/><path d="M953.75,994.37,818,744.05a44.28,44.28,0,0,0-39.78-24.5H489.87a7.39,7.39,0,0,1-7.32-8.72l34.84-201.1a14.86,14.86,0,0,1,14.2-12.36l26.4-.78a18.62,18.62,0,0,1,17,10l56.82,109.1a7.47,7.47,0,0,1-6.65,10.85H584.29A45,45,0,0,0,540,679.11c3.55,21.71,22.61,37.44,45.22,37.44h140.1a44.74,44.74,0,0,0,39.47-65.91L666.31,467.33a134.34,134.34,0,0,0-120.47-70.78l-14.54.22A133.65,133.65,0,0,0,400.6,511.32L330.33,985.73,330,988a44.93,44.93,0,0,0,0,6.14v61s-.79,6,.11,6.59,4.24,0,5.36-.2h67.75c2.63.2,7.82,1,7.82,1h2.91l32.28-1h479.6A23.62,23.62,0,0,0,947.19,1048h0a86.16,86.16,0,0,0,6.56-53.63ZM811.68,933.14l-13.73,32a37.13,37.13,0,0,1-34.11,22.46H486.54a37.18,37.18,0,0,1-36.74-42.72l20.52-136.9a7.42,7.42,0,0,1,7.39-6.38H735.79a7.25,7.25,0,0,1,6.43,3.75l69,121.18A7.72,7.72,0,0,1,811.68,933.14Z"/><path d="M118.45,694,92.09,720.14l26.36,26.11L229.84,856.54A57.84,57.84,0,0,1,247,897.65V950.2L43.85,749.07,14.64,720.14l29.21-28.93L247,490.08v52.55a57.84,57.84,0,0,1-17.15,41.11Z"/><path d="M256,973.61,0,720.14,256,466.67v76a68,68,0,0,1-20,48L105.2,720.14,236,849.61a68,68,0,0,1,20,48ZM28.28,720.14,237,926.8V897.65a48.44,48.44,0,0,0-14.25-34.17L78,720.14,222.74,576.8A48.4,48.4,0,0,0,237,542.63V513.48Z"/><path d="M1097.53,746.25l26.36-26.11L1097.53,694,986.14,583.74A57.84,57.84,0,0,1,969,542.63V490.08l203.14,201.13,29.21,28.93-29.21,28.93L969,950.2V897.65a57.84,57.84,0,0,1,17.15-41.11Z"/><path d="M959,973.61v-76a68.06,68.06,0,0,1,20-48l130.75-129.47L979,590.67a68.06,68.06,0,0,1-20-48v-76l256,253.47Zm20-460.13v29.15a48.44,48.44,0,0,0,14.25,34.17L1138,720.14,993.24,863.48A48.44,48.44,0,0,0,979,897.65V926.8L1187.7,720.14Z"/></g></svg>