<svg xmlns="http://www.w3.org/2000/svg" viewBox="0 0 384 323.74"><path d="M384,143.11c-1.63,3.75-2.78,7.82-5,11.18-4.87,7.36-12.3,10.64-21.16,11.27-.76,5-1.61,9.74-2.16,14.56a4.68,4.68,0,0,0,1.49,3.08c8.36,8.86,8.07,22-.73,29.73s-21.6,6.51-29.35-2.69c-.74-.89-2.24-1.92-3.18-1.74-5.49,1-10.91,2.4-16.48,3.69.08,1.76.19,3.24.22,4.72a20.28,20.28,0,0,1-23.85,20.48,5.55,5.55,0,0,0-4.15,1.19,129.58,129.58,0,0,0-9.54,10.06,4.5,4.5,0,0,0-.75,3.75c3,8.33,1.81,15.86-4.42,22.18-5.9,6-13.25,7.55-21.07,4.75-8.32-3-12.76-9.36-13.4-18.16-.16-2.17-.82-3-2.94-3.38-7.58-1.53-15.13-3.23-22.66-5-2.25-.53-3.49,0-4.9,1.94-6.08,8.35-14.36,12-24.73,11a4.41,4.41,0,0,0-3.45,1.7q-8.33,13.13-16.26,26.51a6.78,6.78,0,0,0-.42,4.49c2,9.5-2.12,18.81-10.54,23.1a20.23,20.23,0,0,1-24.53-4.89c-6.12-7.17-6.38-17.29-.86-25.36A6.49,6.49,0,0,0,120,287c-.41-2.57-1.45-5-2-7.59a5.49,5.49,0,0,1,3.79-6.79c2.89-.92,5.63.47,6.87,3.57.46,1.15.74,2.38,1.1,3.58s.72,2.34,1.16,3.79c2.81,0,5.59-.34,8.25.1s4.93,1.63,7.85,2.65l15.73-25.65c-4.91-4.17-8.42-9.08-9.69-15.31-2.11-10.36,1-19,8.92-25.88,1.6-1.38,2.25-2.45,1.76-4.67q-2.53-11.52-4.51-23.16c-.36-2.13-1.35-2.53-3.21-3.22-4.8-1.77-7.55-.22-10.3,3.88-4.51,6.73-9.75,13-14.55,19.54a4.44,4.44,0,0,0-.74,3.53c5,12.86,2,21.44-10.64,28.84.54,2,1.16,4.11,1.67,6.24,1,4-.44,6.89-3.7,7.85s-5.9-.92-7.15-4.86c-.18-.59-.32-1.21-.45-1.82-.89-4.1-2.4-7-7-9-7.7-3.29-10.81-10.31-11-19-9.24-1.72-18.52-3.5-27.82-5.1-.81-.14-2,.72-2.73,1.41-8.5,8-20.2,8.41-28.39.86s-8.56-19.53-1.34-28.42a4.85,4.85,0,0,0,.89-3.86q-3.41-10.5-7.36-20.82c-.45-1.17-2.17-1.9-3.38-2.72-.36-.25-1-.12-1.46-.22-4.65-.93-7-3.72-6.21-7.29.77-3.42,3.68-4.74,8.4-3.8,8.91,1.77,17-3.54,18.41-12.09,1.34-8.12-4.45-16.17-12.41-17.28-9.07-1.25-16.69,4.72-17.42,13.85-.25,3-1.18,5.44-4.26,6.31-3.35.93-5.41-1-7-3.63v-6a4.4,4.4,0,0,0,.56-.94c4.23-15.46,15.56-22.72,31.66-20.42a3.66,3.66,0,0,0,3-1.26c6.3-9,12.47-18.09,18.64-27.11-7.44-10.75-7.45-20.67.09-28.37,8-8.19,19.67-8.22,29-.71,16.28-10.58,32.63-21.16,48.87-31.89,1-.68,1.7-2.61,1.75-4A20.43,20.43,0,0,1,149.82.42,19.82,19.82,0,0,1,172.22,12a4.67,4.67,0,0,0,4.63,3.3c7.73.52,15.44,1.21,23.17,1.74,2.83.19,5.19,1,6.23,3.86,1.45,4-1.49,7.61-6.17,7.38-5.66-.27-11.3-.82-17.83-1.32l22.46,24.68c.42.47.77,1.18,1.28,1.33a5.78,5.78,0,0,0,3,.24,21.59,21.59,0,0,1,16.38,1.3A3.66,3.66,0,0,0,228.7,54c3.77-3.82,7.36-7.83,10.91-11.86a3.35,3.35,0,0,0,.83-2.54c-.8-2.73-1.89-5.37-2.92-8.19-1.57-.19-3.3-.43-5-.59s-3.5-.17-5.24-.35c-3.74-.39-6.09-2.77-5.93-5.95s2.7-5.36,6.47-5.23c3.12.11,6.24.36,9.33.74a4.65,4.65,0,0,0,4.95-2.24,19.17,19.17,0,0,1,15.31-8.18c12.24-.57,21.58,9.37,21,22.05-.07,1.53.27,3.69,1.28,4.56,8.79,7.6,17.75,15,26.76,22.34a4.54,4.54,0,0,0,3.58.65c8.8-2.47,16.49-.77,22.34,6.34s6.1,15,2,23.12a3.68,3.68,0,0,0-.25,3c4.66,7.65,9.47,15.22,14.25,22.82.75-.21,1.21-.35,1.68-.47,15.63-4,29.25,3.93,33.39,19.52a7.2,7.2,0,0,0,.64,1.31Zm-155.31-55c-12.07,7.43-22.06,5.59-30.24-5.14a3.36,3.36,0,0,0-2.6-1.32c-7.36,1.83-14.67,3.85-21,5.55-1.21,7-2.3,13.29-3.54,20.43,14.06,15.16,28.91,31.2,43.83,47.18a3.34,3.34,0,0,0,2.84.85c5.41-2.08,10.74-1.78,16.3.24,5-8.48,9.92-16.84,14.76-25.27a2.94,2.94,0,0,0-.14-2.6c-4.23-6.31-4.87-12.92-2.19-20a3.2,3.2,0,0,0-.53-2.82C240.46,99.52,234.61,93.9,228.69,88.15ZM301.42,202c5.22-1.19,9.92-2.48,14.7-3.3,4.16-.71,7.79-1.53,7.71-6.89,0-.93.88-1.85.95-2.8.08-1.17.18-2.79-.49-3.5q-23.55-25.15-47.35-50.07c-.67-.71-2.3-.82-3.43-.72-3.92.35-7.84,1.38-11.72,1.24-2.2-.08-3.06.44-4,2.11-4.48,7.78-9.14,15.46-13.54,23.29-.64,1.14-.41,2.9-.25,4.33q.69,6.21,1.7,12.38c.21,1.26.59,2.92,1.49,3.56q13,9.18,26.24,18a4.5,4.5,0,0,0,3.84.25c7.57-3.95,14.83-3.65,21.95,1A18.74,18.74,0,0,0,301.42,202ZM170.94,31.26c-6.85,9.48-20.65,13.73-32.78,2.22C122.11,43.92,106,54.37,90,64.94a4.14,4.14,0,0,0-1.31,3.35c.07.82,1.33,2,2.25,2.2,10.75,2.72,21.53,5.38,32.35,7.81a5,5,0,0,0,3.93-1.58C138,64,155.59,63.3,167,75.29a3.78,3.78,0,0,0,4.5,1.22c5.38-1.61,10.83-2.94,16.24-4.4,7.63-2.06,7.66-2.06,10-9.18a3.09,3.09,0,0,0-.42-2.58C188.68,50.7,179.93,41.13,170.94,31.26Zm97.43,178.62-29.25-20c-5.53,4-11.38,5.86-18.1,4.41-.94-.21-2.52.79-3.27,1.68-4,4.77-7.9,9.69-11.82,14.55l-8.67,10.71c5.55,5.86,7.74,12.58,7.68,20.16,9.39,2.06,18.51,4.12,27.68,6a4.64,4.64,0,0,0,3.5-1.15c6.48-6,13.8-7.6,22.17-4.71a3.79,3.79,0,0,0,3.21-.33c3.54-3.47,6.87-7.15,10.19-10.66C266.87,222,266.44,219.33,268.37,209.88Zm16-100.74a21.54,21.54,0,0,1-.47,15.2,3.4,3.4,0,0,0,.87,2.84q23.86,25.4,47.9,50.64a3.79,3.79,0,0,0,2.81,1.1c3-.46,6-1.25,9.21-2,.52-3.32,1-6.77,1.63-10.19.47-2.46.05-4-2.4-5.42A24.52,24.52,0,0,1,332,144.41c-1.84-9,.8-16.74,6.85-23.71l-14.7-23.46a20.92,20.92,0,0,1-15.34-.15,4.68,4.68,0,0,0-3.42.3C298.53,101.14,291.7,105,284.39,109.14Zm-135.1,36.19c-.57-8.27-1-15.87-1.66-23.46-.07-.91-.72-2.32-1.42-2.55a76.83,76.83,0,0,0-9.72-2.46,4,4,0,0,0-2.81,1.17c-8.81,8.13-17.53,16.35-26.35,24.48-1.48,1.36-1.78,2.47-1.11,4.5,2.57,7.73,1.24,14.86-4.52,20.75a4.1,4.1,0,0,0-1,4.88c2.68,7.91,5.51,15.79,7.81,23.81,1.48,5.16,3,9.27,9.61,9.28,2.23,0,3.52.07,4.9-1.8q8.1-11,16.51-21.79a4.35,4.35,0,0,0,.59-5.31c-4-8.49-1.81-18.52,5.56-23.88C148.84,150.62,150.2,148.37,149.29,145.33Zm150.3-77.67c-4.73-4-9.22-7.72-13.72-11.46s-9.19-7.64-13.77-11.45c-6.42,5.12-13.23,6.71-20.93,4.16a4.17,4.17,0,0,0-3.39,1.17c-3.43,3.46-6.51,7.26-10,10.67-2.32,2.28-3.47,4.35-2.41,7.8.74,2.38,0,5.18.19,7.77.09,1.33.33,3,1.18,3.88q8.28,8.42,16.93,16.45a4.45,4.45,0,0,0,3.77.76,20.9,20.9,0,0,1,18.39,1.41,3.76,3.76,0,0,0,3,.45c6.67-3.59,13.25-7.37,20-11.19C295.77,81.13,295.79,74.5,299.59,67.66ZM43.9,119.53c6.82,7,9.91,15,8.14,24.46s-7.6,15.7-16.07,19.77l7.83,22.16c2.16,0,4,.09,5.9,0,1.24-.08,2.93,0,3.63-.8,5.9-6.27,11.61-12.71,17.26-19a5,5,0,0,0-.22-1c-5.8-11.36-4.41-18.83,5-27.77a4.49,4.49,0,0,0,1-3.54q-3.8-20.06-7.93-40c-.21-1.06-1.3-2.59-2.16-2.72a4.42,4.42,0,0,0-3.64,1.36C56.31,101.25,50.24,110.26,43.9,119.53ZM126.82,109a29.22,29.22,0,0,1-5.39-17.74c0-.76-1.5-2-2.5-2.28-8.45-2.18-17-4-25.4-6.27-4.46-1.19-8.64-2.54-11.34,2.83a2.49,2.49,0,0,1-1.11,1c-2.12,1-2.08,2.6-1.67,4.66,2.42,12,4.86,23.94,6.94,36,.73,4.2,1.77,7.31,6.77,7.29.92,0,1.82.88,2.78,1s2.28.15,2.88-.4C108.15,126.48,117.43,117.78,126.82,109Zm47.94,104c4.19.53,7.75,1.05,11.32,1.37a3.64,3.64,0,0,0,2.8-.82c7.13-8.64,14.15-17.38,20.91-25.73L205.09,177c-8.12-.76-16.43-1.62-24.76-2.23-1.09-.08-2.55.91-3.36,1.82-2.21,2.49-4.22,5.16-6.19,7.85a4.34,4.34,0,0,0-1,2.83C171.34,196,173.1,204.65,174.76,213Zm-11.9-97.94c-3.75.8-4.36,2.75-4.06,5.88.8,8.2,1.11,16.43,1.83,24.64a4.1,4.1,0,0,0,2.23,3,21.54,21.54,0,0,1,14.6,12.89,3.77,3.77,0,0,0,2.62,1.87c8.18.87,16.38,1.59,24.59,2.27a12.14,12.14,0,0,0,3.08-.56,11.8,11.8,0,0,0-1.49-3.09c-7.58-8.29-15.23-16.52-22.87-24.75C176.53,129.8,169.66,122.41,162.86,115.09ZM68.41,207.78c8.21,1.54,17.26,3.28,26.33,4.91a3.44,3.44,0,0,0,2.27-.77c2.69-2,3.75-4.07,2.36-7.8-3.69-9.91-6.73-20.06-9.91-29.75-3.06-.46-5.63-1-8.22-1.18a3.52,3.52,0,0,0-2.57.85c-5.58,6-11.06,12.15-15.85,17.45Zm125.15,32a15,15,0,1,0-30,0,15.23,15.23,0,0,0,15.05,15A15.07,15.07,0,0,0,193.56,239.74ZM147.71,108a14.94,14.94,0,0,0,15.08-14.91,15,15,0,1,0-30-.14A15,15,0,0,0,147.71,108ZM357.9,124.18A14.87,14.87,0,0,0,342.72,139a15,15,0,1,0,30,.36A14.91,14.91,0,0,0,357.9,124.18ZM216.75,174.42a9,9,0,1,0,18-.09,9,9,0,0,0-18,.09Zm109-95.56a8.78,8.78,0,0,0-8.56-9.37,9,9,0,0,0-9.37,8.65,9.18,9.18,0,0,0,8.83,9.31A9,9,0,0,0,325.72,78.86Zm-119-6.47a9,9,0,0,0,9,9,9.21,9.21,0,0,0,8.92-8.85,9,9,0,0,0-8.92-9.13A8.81,8.81,0,0,0,206.77,72.39ZM68.57,61.85a9,9,0,0,0-9.16,8.92,9.22,9.22,0,0,0,9.12,9A9,9,0,0,0,77.39,71,8.8,8.8,0,0,0,68.57,61.85Zm57.92,241.62a9,9,0,0,0,9,9.08,9.19,9.19,0,0,0,9-9.2,9,9,0,0,0-8.89-8.79A8.81,8.81,0,0,0,126.49,303.47ZM87.21,162.72a8.76,8.76,0,0,0,9-9,9,9,0,0,0-9.11-9,9.21,9.21,0,0,0-8.86,8.93A9,9,0,0,0,87.21,162.72Zm80.1,6.18a8.82,8.82,0,0,0-8.58-9.38,9,9,0,0,0-9.39,8.66,9.25,9.25,0,0,0,8.85,9.31A9.08,9.08,0,0,0,167.31,168.9Zm175.81,19.9a9,9,0,0,0-9.06,9,9.17,9.17,0,0,0,8.78,9,9,9,0,0,0,9.17-8.9A8.82,8.82,0,0,0,343.12,188.8Zm-84.53-168a9.16,9.16,0,0,0-9.41,8.71,9.17,9.17,0,0,0,8.47,9.27,9,9,0,1,0,.94-18ZM38,206A9,9,0,0,0,47,215,9.2,9.2,0,0,0,56,205.81,9,9,0,0,0,46.67,197,8.78,8.78,0,0,0,38,206ZM162.78,20.38a9.09,9.09,0,0,0-8.89-9.2,9.18,9.18,0,0,0-9.09,9.05,9,9,0,0,0,8.75,8.92A8.87,8.87,0,0,0,162.78,20.38Zm124.68,206a9,9,0,1,0-.11-18,9,9,0,0,0,.11,18Zm-166-1.19a9,9,0,0,0-18-.58,9,9,0,1,0,18,.58ZM265.43,125.13a9,9,0,0,0,0-18,8.94,8.94,0,0,0-9,9A8.84,8.84,0,0,0,265.43,125.13Zm-5.82,135.13a9,9,0,0,0-9.08-9,9.24,9.24,0,0,0-8.9,9.27,9,9,0,0,0,9,8.7A8.78,8.78,0,0,0,259.61,260.26Z"/></svg>